<svg data-v-423bf9ae="" xmlns="http://www.w3.org/2000/svg" viewBox="0 0 547 90" class="iconLeftSlogan"><!----><!----><!----><g data-v-423bf9ae="" id="26a3b248-64c7-44d5-92d6-455ff8fd184d" fill="#193655" transform="matrix(4.243281654165035,0,0,4.243281654165035,118.6888948858053,-11.711457563446992)"><path d="M6.29 3.99L6.29 3.99Q6.29 4.73 6.15 5.33L6.15 5.33L6.15 5.33Q6.01 5.92 5.73 6.82L5.73 6.82L5.73 6.82Q5.45 7.39 5.21 7.84L5.21 7.84L4.87 8.51L4.87 8.51Q4.87 8.74 4.91 8.77L4.91 8.77L4.91 8.77Q4.94 8.81 5.15 8.81L5.15 8.81L5.15 8.81Q5.31 8.95 5.73 9.23L5.73 9.23L5.73 9.23Q6.15 9.51 6.29 9.65L6.29 9.65L6.29 9.65Q6.71 10.21 6.90 10.93L6.90 10.93L6.90 10.93Q7.08 11.65 7.24 12.77L7.24 12.77L7.24 12.77Q7.34 13.50 7.42 13.90L7.42 13.90L7.42 13.90Q7.42 14.04 7.35 14.49L7.35 14.49L7.35 14.49Q7.29 14.83 7.29 14.95L7.29 14.95L7.29 14.95Q7.29 15.19 7.42 15.32L7.42 15.32L7.42 15.32Q7.42 15.41 7.50 15.50L7.50 15.50L7.50 15.50Q7.57 15.58 7.74 15.72L7.74 15.72L7.74 15.72Q7.77 15.75 7.87 15.83L7.87 15.83L7.87 15.83Q7.97 15.92 8.02 16.00L8.02 16.00L8.02 16.00Q8.06 16.07 8.06 16.14L8.06 16.14L8.06 16.14Q8.06 16.31 7.98 16.48L7.98 16.48L7.98 16.48Q7.90 16.65 7.87 16.69L7.87 16.69L7.87 16.69Q7.32 16.69 6.31 16.72L6.31 16.72L5.26 16.73L5.26 16.73Q5.10 16.55 5.10 16.37L5.10 16.37L5.10 16.37Q5.10 16.30 5.12 16.24L5.12 16.24L5.12 16.24Q5.14 16.18 5.15 16.17L5.15 16.17L5.73 15.60L5.73 15.60Q5.84 15.33 5.84 15.04L5.84 15.04L5.84 15.04Q5.84 14.84 5.78 14.48L5.78 14.48L5.78 14.48Q5.73 14.08 5.73 13.90L5.73 13.90L5.73 12.19L5.73 11.91L5.73 11.91Q5.73 11.21 5.50 10.53L5.50 10.53L5.50 10.53Q5.28 9.84 4.87 9.65L4.87 9.65L4.87 9.65Q4.45 9.44 4.02 9.44L4.02 9.44L4.02 9.44Q3.60 9.44 3.16 9.65L3.16 9.65L3.16 9.65Q2.81 10.00 2.81 11.12L2.81 11.12L2.81 11.12Q2.81 11.63 2.86 12.14L2.86 12.14L2.86 12.14Q2.88 12.78 2.88 13.03L2.88 13.03L2.88 13.03Q2.88 13.23 2.84 13.41L2.84 13.41L2.84 13.41Q2.80 13.59 2.74 13.76L2.74 13.76L2.74 13.76Q2.59 14.15 2.59 14.48L2.59 14.48L2.59 15.60L2.59 15.60Q2.86 15.72 3.02 15.93L3.02 15.93L3.02 15.93Q3.19 16.13 3.19 16.31L3.19 16.31L3.19 16.31Q3.19 16.58 2.88 16.73L2.88 16.73L2.88 16.73Q2.74 16.67 2.46 16.65L2.46 16.65L2.37 16.65L2.37 16.65Q2.14 16.65 1.75 16.73L1.75 16.73L1.75 16.73Q1.33 16.81 1.12 16.81L1.12 16.81L1.12 16.81Q0.90 16.81 0.63 16.73L0.63 16.73L0.63 16.73Q0.41 16.51 0.37 16.44L0.37 16.44L0.37 16.44Q0.34 16.37 0.34 16.17L0.34 16.17L0.34 16.17Q0.43 16.07 0.64 15.93L0.64 15.93L0.64 15.93Q0.78 15.85 0.84 15.78L0.84 15.78L0.84 15.78Q0.90 15.71 0.90 15.60L0.90 15.60L0.90 14.18L0.90 11.91L0.90 11.91Q0.90 11.91 0.91 11.84L0.91 11.84L0.91 11.84Q0.92 11.77 0.92 11.61L0.92 11.61L0.90 11.34L0.90 11.34Q0.90 11.19 1.01 10.89L1.01 10.89L1.01 10.89Q1.19 10.29 1.19 9.93L1.19 9.93L1.19 9.93Q1.19 8.16 1.14 6.97L1.14 6.97L1.14 6.97Q1.09 5.78 0.90 4.83L0.90 4.83L0.90 3.99L0.90 3.99Q0.62 3.99 0.48 3.94L0.48 3.94L0.48 3.94Q0.34 3.89 0.34 3.70L0.34 3.70L0.34 3.70Q0.14 3.70 0.14 3.37L0.14 3.37L0.14 3.37Q0.14 3.23 0.19 3.09L0.19 3.09L0.19 3.09Q0.24 2.95 0.31 2.88L0.31 2.88L0.31 2.88Q0.41 2.79 0.59 2.79L0.59 2.79L0.59 2.79Q0.66 2.79 0.88 2.81L0.88 2.81L0.88 2.81Q1.30 2.86 1.41 2.86L1.41 2.86L1.78 2.84L1.78 2.84Q2.17 2.81 2.38 2.81L2.38 2.81L2.38 2.81Q2.87 2.81 3.16 2.94L3.16 2.94L3.16 2.94Q3.46 3.07 3.46 3.42L3.46 3.42L3.46 3.42Q3.46 3.53 3.40 3.59L3.40 3.59L3.40 3.59Q3.33 3.65 3.21 3.74L3.21 3.74L3.21 3.74Q2.97 3.91 2.88 3.99L2.88 3.99L2.88 3.99Q2.88 4.54 3.02 5.54L3.02 5.54L3.02 5.54Q3.16 6.52 3.16 7.10L3.16 7.10L3.16 7.10Q3.16 7.17 3.11 7.42L3.11 7.42L3.11 7.42Q3.09 7.48 3.07 7.62L3.07 7.62L3.07 7.62Q3.04 7.77 3.04 7.88L3.04 7.88L3.04 7.88Q3.04 8.11 3.16 8.23L3.16 8.23L3.16 8.23Q3.95 8.04 4.43 7.34L4.43 7.34L4.43 7.34Q4.91 6.65 5.15 5.68L5.15 5.68L5.15 5.68Q5.15 5.35 5.31 4.83L5.31 4.83L5.31 4.83Q5.45 4.27 5.45 3.99L5.45 3.99L4.87 3.99L4.87 3.99Q4.87 3.82 4.72 3.70L4.72 3.70L4.72 3.70Q4.58 3.56 4.58 3.42L4.58 3.42L4.58 3.42Q4.70 3.19 4.91 3.12L4.91 3.12L4.91 3.12Q5.12 3.05 5.53 3.01L5.53 3.01L5.53 3.01Q6.03 2.98 6.29 2.86L6.29 2.86L6.29 2.86Q6.55 2.94 6.69 3.10L6.69 3.10L6.69 3.10Q6.82 3.26 6.82 3.46L6.82 3.46L6.82 3.46Q6.82 3.67 6.66 3.83L6.66 3.83L6.66 3.83Q6.51 3.99 6.29 3.99L6.29 3.99ZM16.20 3.96L16.20 3.96Q16.00 4.34 15.95 4.87L15.95 4.87L15.95 4.87Q15.90 5.39 15.90 6.26L15.90 6.26L15.90 8.81L15.90 11.09L15.90 11.09Q15.90 11.94 16.06 13.38L16.06 13.38L16.06 13.38Q16.20 14.95 16.20 15.65L16.20 15.65L16.20 15.65Q16.31 15.76 16.51 15.88L16.51 15.88L16.51 15.88Q16.65 15.97 16.71 16.04L16.71 16.04L16.71 16.04Q16.77 16.10 16.77 16.23L16.77 16.23L16.77 16.80L16.77 16.80Q16.77 16.79 16.73 16.73L16.73 16.73L16.73 16.73Q16.69 16.67 16.63 16.67L16.63 16.67L16.63 16.67Q16.56 16.67 16.49 16.74L16.49 16.74L16.49 16.74Q16.31 16.80 16.20 16.81L16.20 16.81L16.20 16.81Q16.09 16.81 16.06 16.81L16.06 16.81L15.72 16.81L15.72 16.81Q15.57 16.80 15.05 16.80L15.05 16.80L14.38 16.81L14.38 16.81Q14.21 16.65 14.21 16.56L14.21 16.56L14.21 16.56Q14.21 16.49 14.32 16.39L14.32 16.39L14.32 16.39Q14.43 16.28 14.49 16.23L14.49 16.23L14.49 16.23Q14.49 16.13 14.56 16.07L14.56 16.07L14.56 16.07Q14.63 16.00 14.77 15.93L14.77 15.93L14.77 15.93Q14.91 15.86 14.98 15.81L14.98 15.81L14.98 15.81Q15.05 15.75 15.05 15.65L15.05 15.65L15.05 15.65Q15.18 14.69 15.18 13.30L15.18 13.30L15.18 13.30Q15.18 12.22 15.11 10.86L15.11 10.86L15.11 10.86Q15.05 9.27 15.05 8.53L15.05 8.53L15.05 8.53Q15.05 8.40 14.99 8.33L14.99 8.33L14.99 8.33Q14.92 8.26 14.85 8.25L14.85 8.25L14.85 8.25Q14.78 8.23 14.76 8.23L14.76 8.23L14.76 8.23Q14.39 8.11 13.83 8.11L13.83 8.11L13.83 8.11Q13.38 8.11 12.82 8.18L12.82 8.18L12.82 8.18Q12.18 8.23 11.91 8.23L11.91 8.23L11.91 8.23Q11.52 8.62 11.43 9.04L11.43 9.04L11.43 9.04Q11.34 9.45 11.34 10.25L11.34 10.25L11.34 13.37L11.34 14.24L11.34 14.24Q11.42 14.38 11.48 14.63L11.48 14.63L11.48 14.63Q11.49 14.74 11.49 14.95L11.49 14.95L11.49 14.95Q11.49 15.16 11.52 15.32L11.52 15.32L11.52 15.32Q11.54 15.47 11.63 15.65L11.63 15.65L11.63 15.65Q11.79 15.65 11.98 15.83L11.98 15.83L11.98 15.83Q12.17 16.00 12.17 16.18L12.17 16.18L12.17 16.18Q12.17 16.39 11.91 16.51L11.91 16.51L11.91 16.51Q11.63 16.51 10.86 16.58L10.86 16.58L10.86 16.58Q10.33 16.63 10.07 16.63L10.07 16.63L10.07 16.63Q9.56 16.63 9.07 16.51L9.07 16.51L9.07 16.51Q9.04 16.46 9.00 16.31L9.00 16.31L9.00 16.31Q8.95 16.16 8.95 16.00L8.95 16.00L8.95 16.00Q8.95 15.78 9.07 15.65L9.07 15.65L9.65 15.65L9.65 14.52L9.65 7.95L9.65 7.38L9.65 7.10L9.65 6.26L9.65 5.96L9.65 5.96Q9.58 5.80 9.52 5.49L9.52 5.49L9.52 5.49Q9.51 5.32 9.51 4.96L9.51 4.96L9.51 4.96Q9.51 4.61 9.48 4.38L9.48 4.38L9.48 4.38Q9.45 4.14 9.35 3.96L9.35 3.96L9.35 3.96Q9.32 3.96 9.25 3.95L9.25 3.95L9.25 3.95Q9.17 3.93 9.04 3.86L9.04 3.86L9.04 3.86Q8.90 3.79 8.78 3.67L8.78 3.67L8.78 3.67Q8.75 3.65 8.70 3.56L8.70 3.56L8.70 3.56Q8.65 3.47 8.65 3.37L8.65 3.37L8.65 3.37Q8.65 3.22 8.78 3.09L8.78 3.09L9.93 3.09L9.93 3.09Q10.11 3.09 10.53 3.04L10.53 3.04L10.53 3.04Q10.95 2.97 11.27 2.97L11.27 2.97L11.27 2.97Q11.66 2.97 11.91 3.09L11.91 3.09L11.91 3.09Q12.14 3.09 12.31 3.28L12.31 3.28L12.31 3.28Q12.49 3.46 12.49 3.67L12.49 3.67L12.49 3.67Q12.49 3.86 12.24 3.91L12.24 3.91L12.24 3.91Q11.98 3.96 11.63 3.96L11.63 3.96L11.63 3.96Q11.51 4.09 11.51 4.26L11.51 4.26L11.51 4.26Q11.51 4.34 11.56 4.56L11.56 4.56L11.56 4.56Q11.63 4.94 11.63 5.11L11.63 5.11L11.63 5.11Q11.63 5.28 11.58 5.73L11.58 5.73L11.58 5.73Q11.51 6.12 11.51 6.47L11.51 6.47L11.51 6.47Q11.51 6.86 11.63 7.10L11.63 7.10L11.63 7.10Q12.50 7.31 13.34 7.31L13.34 7.31L13.34 7.31Q14.21 7.31 15.05 7.10L15.05 7.10L15.05 7.10Q15.05 6.10 15.00 5.31L15.00 5.31L15.00 5.31Q14.95 4.52 14.76 3.96L14.76 3.96L14.76 3.96Q14.70 3.88 14.52 3.82L14.52 3.82L14.52 3.82Q14.42 3.81 14.20 3.81L14.20 3.81L14.20 3.81Q13.99 3.81 13.86 3.79L13.86 3.79L13.86 3.79Q13.73 3.77 13.64 3.67L13.64 3.67L13.64 3.09L13.64 3.09Q14.31 2.77 14.88 2.77L14.88 2.77L14.88 2.77Q15.11 2.77 15.33 2.81L15.33 2.81L15.33 2.81Q15.61 2.84 15.67 2.84L15.67 2.84L15.67 2.84Q15.81 2.84 15.93 2.83L15.93 2.83L15.93 2.83Q16.06 2.81 16.20 2.81L16.20 2.81L16.20 2.81Q16.41 2.91 16.52 3.10L16.52 3.10L16.52 3.10Q16.63 3.29 16.63 3.49L16.63 3.49L16.63 3.49Q16.63 3.68 16.52 3.82L16.52 3.82L16.52 3.82Q16.41 3.96 16.20 3.96L16.20 3.96ZM20.19 14.77L20.19 14.77Q20.71 15.29 21.22 15.29L21.22 15.29L21.22 15.29Q21.50 15.29 21.77 15.11L21.77 15.11L21.77 15.11Q22.25 14.76 22.46 14.06L22.46 14.06L22.46 14.06Q22.68 13.36 22.72 12.68L22.72 12.68L22.72 12.68Q22.76 12.01 22.76 11.06L22.76 11.06L22.76 6.79L22.76 6.79Q22.76 6.48 22.79 6.10L22.79 6.10L22.79 6.10Q22.82 5.73 22.83 5.59L22.83 5.59L22.83 5.59Q22.89 4.94 22.89 4.68L22.89 4.68L22.89 4.68Q22.89 4.19 22.76 3.95L22.76 3.95L22.76 3.95Q22.64 3.81 22.51 3.74L22.51 3.74L22.51 3.74Q22.39 3.67 22.31 3.65L22.31 3.65L22.31 3.65Q22.23 3.64 22.20 3.64L22.20 3.64L22.20 3.64Q22.20 3.56 22.15 3.42L22.15 3.42L22.15 3.42Q22.09 3.29 22.08 3.25L22.08 3.25L22.08 3.25Q21.97 3.02 21.97 2.95L21.97 2.95L21.97 2.95Q21.97 2.87 22.08 2.87L22.08 2.87L22.08 2.87Q22.48 2.87 22.97 2.83L22.97 2.83L22.97 2.83Q23.14 2.83 23.53 2.81L23.53 2.81L23.53 2.81Q23.91 2.79 24.18 2.80L24.18 2.80L24.18 2.80Q24.70 2.81 24.96 3.00L24.96 3.00L24.96 3.00Q25.21 3.18 25.21 3.40L25.21 3.40L25.21 3.40Q25.21 3.58 25.06 3.70L25.06 3.70L25.06 3.70Q24.65 4.03 24.58 4.93L24.58 4.93L24.58 4.93Q24.56 5.19 24.56 5.81L24.56 5.81L24.56 5.81Q24.56 6.27 24.54 6.76L24.54 6.76L24.54 6.76Q24.53 7.25 24.46 7.63L24.46 7.63L24.46 10.47L24.46 10.78L24.46 10.78Q24.46 12.17 24.28 13.16L24.28 13.16L24.28 13.16Q24.11 14.15 23.62 15.05L23.62 15.05L23.62 15.05Q23.25 15.74 22.68 16.25L22.68 16.25L22.68 16.25Q22.11 16.76 21.34 16.76L21.34 16.76L21.34 16.76Q21.21 16.76 21.10 16.77L21.10 16.77L21.10 16.77Q20.99 16.79 20.66 16.79L20.66 16.79L20.66 16.79Q20.03 16.69 19.59 16.30L19.59 16.30L19.59 16.30Q19.15 15.92 18.77 15.33L18.77 15.33L18.77 15.33Q18.59 15.02 18.52 14.71L18.52 14.71L18.52 14.71Q18.45 14.39 18.40 13.85L18.40 13.85L18.40 13.85Q18.34 13.17 18.21 12.77L18.21 12.77L18.21 5.64L18.21 5.64Q18.21 5.45 18.24 5.08L18.24 5.08L18.26 4.54L18.26 4.54Q18.26 4.26 18.21 3.95L18.21 3.95L18.21 3.95Q18.20 3.82 18.10 3.75L18.10 3.75L18.10 3.75Q17.99 3.67 17.81 3.58L17.81 3.58L17.81 3.58Q17.57 3.49 17.46 3.39L17.46 3.39L17.46 3.39Q17.35 3.29 17.35 3.08L17.35 3.08L17.35 3.08Q17.50 2.93 17.68 2.88L17.68 2.88L17.68 2.88Q17.86 2.84 18.11 2.83L18.11 2.83L18.11 2.83Q18.35 2.81 18.49 2.80L18.49 2.80L18.49 2.80Q19.21 2.76 19.28 2.76L19.28 2.76L19.28 2.76Q19.96 2.76 20.24 3.04L20.24 3.04L20.24 3.04Q20.31 3.11 20.31 3.22L20.31 3.22L20.31 3.22Q20.31 3.49 19.91 3.95L19.91 3.95L19.91 5.64L19.91 8.22L19.92 11.31L19.92 11.31Q19.92 12.49 19.97 13.27L19.97 13.27L19.97 13.27Q20.02 14.06 20.19 14.77L20.19 14.77ZM25.80 15.92L26.98 15.92L26.98 15.92Q27.15 15.92 27.29 15.78L27.29 15.78L27.29 15.78Q27.43 15.64 27.58 15.64L27.58 15.64L27.58 12.35L27.58 12.35Q27.58 11.62 27.50 10.93L27.50 10.93L27.50 10.93Q27.43 10.25 27.41 10.12L27.41 10.12L27.41 10.12Q27.29 9.21 27.29 8.78L27.29 8.78L27.29 8.78Q27.29 7.59 27.24 6.85L27.24 6.85L27.24 6.85Q27.19 6.10 26.98 5.52L26.98 5.52L26.98 4.31L26.98 4.31Q26.80 4.31 26.46 4.42L26.46 4.42L26.46 4.42Q26.18 4.51 26.08 4.51L26.08 4.51L26.08 4.51Q25.80 4.51 25.80 4.00L25.80 4.00L25.80 4.00Q25.80 3.89 25.87 3.83L25.87 3.83L25.87 3.83Q25.93 3.77 26.07 3.67L26.07 3.67L26.07 3.67Q26.29 3.54 26.40 3.43L26.40 3.43L26.70 3.12L26.70 3.12Q27.09 2.93 27.49 2.88L27.49 2.88L27.49 2.88Q27.89 2.83 28.49 2.83L28.49 2.83L28.49 2.83Q28.70 2.83 28.98 2.80L28.98 2.80L29.37 2.79L29.37 2.79Q29.65 2.79 30.00 2.84L30.00 2.84L30.00 2.84Q30.03 2.83 30.11 2.81L30.11 2.81L30.11 2.81Q30.18 2.79 30.27 2.83L30.27 2.83L30.27 2.83Q30.42 2.97 30.87 3.28L30.87 3.28L30.87 3.28Q30.95 3.35 31.15 3.48L31.15 3.48L31.15 3.48Q31.35 3.61 31.46 3.72L31.46 3.72L31.46 3.72Q31.86 3.91 32.12 4.27L32.12 4.27L32.12 4.27Q32.37 4.63 32.65 5.21L32.65 5.21L32.65 5.21Q33.03 5.98 33.23 6.55L33.23 6.55L33.23 6.55Q33.43 7.13 33.53 7.91L33.53 7.91L33.57 8.26L33.57 8.26Q33.59 8.36 33.64 8.83L33.64 8.83L33.64 8.83Q33.70 9.31 33.70 9.76L33.70 9.76L33.70 9.76Q33.70 10.50 33.53 11.16L33.53 11.16L33.53 11.16Q33.53 11.98 33.22 12.76L33.22 12.76L33.22 12.76Q32.91 13.54 32.53 14.13L32.53 14.13L32.53 14.13Q32.14 14.71 31.46 15.64L31.46 15.64L31.46 15.64Q31.30 15.71 31.00 15.90L31.00 15.90L31.00 15.90Q30.49 16.20 30.07 16.36L30.07 16.36L30.07 16.36Q29.65 16.52 29.06 16.52L29.06 16.52L28.49 16.52L28.49 16.52Q28.10 16.72 27.58 16.77L27.58 16.77L27.58 16.77Q27.06 16.81 26.40 16.81L26.40 16.81L26.40 16.81Q26.12 16.53 25.96 16.32L25.96 16.32L25.96 16.32Q25.80 16.11 25.80 15.92L25.80 15.92ZM29.06 3.72L29.06 3.72Q28.87 3.92 28.87 4.56L28.87 4.56L28.88 5.21L28.88 5.21Q28.88 5.91 28.92 6.45L28.92 6.45L28.92 6.45Q28.95 7.04 28.95 7.29L28.95 7.29L28.95 7.29Q28.95 7.56 29.01 8.18L29.01 8.18L29.01 8.18Q29.06 8.88 29.06 9.38L29.06 9.38L29.06 12.35L29.06 12.35Q29.06 12.63 29.13 12.92L29.13 12.92L29.13 12.92Q29.20 13.20 29.22 13.26L29.22 13.26L29.22 13.26Q29.37 13.80 29.37 14.13L29.37 14.13L29.37 14.13Q29.37 14.39 29.29 14.70L29.29 14.70L29.29 14.70Q29.23 14.95 29.23 15.02L29.23 15.02L29.23 15.02Q29.23 15.19 29.37 15.33L29.37 15.33L29.37 15.33Q29.51 15.33 29.82 15.19L29.82 15.19L29.82 15.19Q30.10 15.04 30.27 15.04L30.27 15.04L30.27 15.04Q30.27 14.90 30.34 14.83L30.34 14.83L30.34 14.83Q30.41 14.76 30.48 14.74L30.48 14.74L30.48 14.74Q30.55 14.73 30.58 14.73L30.58 14.73L30.58 14.73Q30.76 14.73 30.81 14.62L30.81 14.62L30.81 14.62Q30.86 14.50 30.86 14.43L30.86 14.43L30.86 14.43Q31.26 13.85 31.36 13.10L31.36 13.10L31.36 13.10Q31.46 12.35 31.46 11.16L31.46 11.16L31.46 11.16Q31.46 10.99 31.51 10.54L31.51 10.54L31.51 10.54Q31.58 9.84 31.58 9.66L31.58 9.66L31.58 9.66Q31.58 9.16 31.46 8.78L31.46 8.78L31.46 7.88L31.46 7.88Q31.40 7.59 31.28 6.82L31.28 6.82L31.28 6.82Q31.09 5.71 30.91 5.09L30.91 5.09L30.91 5.09Q30.72 4.47 30.27 4.00L30.27 4.00L30.27 4.00Q30.07 3.81 29.83 3.77L29.83 3.77L29.83 3.77Q29.60 3.72 29.06 3.72L29.06 3.72ZM39.80 15.65L39.80 15.65Q39.80 13.79 39.75 12.54L39.75 12.54L39.75 12.54Q39.70 11.30 39.49 10.32L39.49 10.32L39.49 10.32Q39.21 10.32 38.58 10.19L38.58 10.19L38.58 10.19Q37.69 10.02 37.17 10.02L37.17 10.02L37.17 10.02Q36.96 10.22 36.91 10.57L36.91 10.57L36.91 10.57Q36.86 10.92 36.86 11.54L36.86 11.54L36.86 11.54Q36.65 12.32 36.60 13.24L36.60 13.24L36.60 13.24Q36.54 14.17 36.54 15.67L36.54 15.67L36.54 15.67Q36.67 15.76 36.78 15.79L36.78 15.79L36.78 15.79Q36.86 15.81 37.02 15.81L37.02 15.81L37.02 15.81Q37.16 15.81 37.25 15.83L37.25 15.83L37.25 15.83Q37.35 15.85 37.44 15.93L37.44 15.93L37.44 15.93Q37.44 16.16 37.42 16.32L37.42 16.32L37.42 16.32Q37.41 16.48 37.39 16.52L37.39 16.52L37.39 16.52Q37.03 16.77 36.65 16.79L36.65 16.79L36.65 16.79Q36.58 16.80 36.43 16.80L36.43 16.80L36.43 16.80Q36.16 16.80 35.91 16.76L35.91 16.76L35.91 16.76Q35.57 16.73 35.41 16.73L35.41 16.73L35.41 16.73Q35.08 16.73 34.80 16.83L34.80 16.83L34.19 16.24L34.19 16.24Q34.71 15.67 35.07 15.67L35.07 15.67L35.07 15.67Q35.28 15.67 35.33 15.52L35.33 15.52L35.33 15.52Q35.38 15.37 35.38 15.06L35.38 15.06L35.38 15.06Q35.55 13.96 35.87 11.42L35.87 11.42L35.87 11.42Q36.13 9.30 36.25 8.55L36.25 8.55L36.25 8.55Q36.25 7.94 36.42 7.32L36.42 7.32L36.42 7.32Q36.60 6.71 36.86 6.20L36.86 6.20L36.86 6.20Q37.07 5.39 37.42 4.72L37.42 4.72L37.42 4.72Q37.77 4.05 38.32 3.25L38.32 3.25L38.32 3.25Q38.35 3.22 38.46 3.12L38.46 3.12L38.46 3.12Q38.58 3.02 38.77 2.93L38.77 2.93L38.77 2.93Q38.95 2.84 39.14 2.84L39.14 2.84L39.14 2.84Q39.34 2.84 39.49 2.94L39.49 2.94L39.49 2.94Q39.79 3.08 40.08 3.46L40.08 3.46L40.08 3.46Q40.36 3.84 40.54 4.27L40.54 4.27L40.54 4.27Q40.73 4.70 40.73 5.01L40.73 5.01L40.73 5.01Q41.06 5.70 41.17 6.59L41.17 6.59L41.17 6.59Q41.29 7.57 41.57 10.78L41.57 10.78L41.57 10.78Q41.71 12.56 41.86 14.17L41.86 14.17L41.86 15.96L41.86 15.96Q41.86 16.03 41.92 16.12L41.92 16.12L41.92 16.12Q41.97 16.21 41.99 16.24L41.99 16.24L41.99 16.24Q42.14 16.42 42.14 16.55L42.14 16.55L42.14 16.55Q42.14 16.72 41.86 16.84L41.86 16.84L41.50 16.76L41.50 16.76Q41.08 16.76 40.66 16.80L40.66 16.80L40.66 16.80Q40.52 16.81 40.26 16.83L40.26 16.83L40.26 16.83Q40.01 16.84 39.80 16.84L39.80 16.84L39.80 16.84Q39.72 16.86 39.55 16.88L39.55 16.88L39.55 16.88Q39.38 16.90 39.28 16.90L39.28 16.90L39.28 16.90Q39.02 16.90 39.02 16.73L39.02 16.73L39.02 16.73Q39.02 16.58 39.15 16.32L39.15 16.32L39.15 16.32Q39.28 16.06 39.47 15.86L39.47 15.86L39.47 15.86Q39.66 15.65 39.80 15.65L39.80 15.65ZM38.32 4.70L38.32 4.70Q38.09 5.36 37.86 6.13L37.86 6.13L37.86 6.13Q37.63 6.90 37.44 7.67L37.44 7.67L37.44 7.67Q37.44 7.84 37.31 8.34L37.31 8.34L37.31 8.34Q37.17 8.96 37.17 9.17L37.17 9.17L37.17 9.17Q37.74 9.34 38.30 9.39L38.30 9.39L38.30 9.39Q38.85 9.44 39.49 9.44L39.49 9.44L39.49 7.67L39.49 7.67Q39.49 7.04 39.33 6.21L39.33 6.21L39.33 6.21Q39.17 5.38 38.93 4.70L38.93 4.70L38.93 4.70Q38.93 4.63 38.88 4.52L38.88 4.52L38.88 4.52Q38.82 4.41 38.63 4.41L38.63 4.41L38.32 4.70ZM47.68 2.88L47.68 2.88Q47.92 3.01 48.29 3.01L48.29 3.01L48.29 3.01Q48.61 3.01 49.00 2.94L49.00 2.94L49.00 2.94Q49.42 2.88 49.59 2.88L49.59 2.88L49.59 2.88Q49.80 3.09 49.90 3.24L49.90 3.24L49.90 3.24Q49.99 3.39 49.99 3.58L49.99 3.58L49.99 3.58Q49.99 3.78 49.88 4.00L49.88 4.00L49.32 4.00L49.32 4.00Q49.20 4.24 49.13 4.48L49.13 4.48L49.13 4.48Q49.07 4.72 48.99 5.14L48.99 5.14L48.99 5.14Q48.92 5.52 48.82 5.92L48.82 5.92L48.82 5.92Q48.54 6.97 48.26 8.21L48.26 8.21L48.26 8.21Q47.98 9.45 47.74 10.60L47.74 10.60L47.74 10.60Q47.29 12.68 47.00 13.90L47.00 13.90L47.00 13.90Q46.72 15.11 46.31 16.35L46.31 16.35L46.31 16.35Q46.12 16.65 45.95 16.65L45.95 16.65L45.95 16.65Q45.77 16.65 45.62 16.35L45.62 16.35L45.62 16.35Q45.47 16.06 45.30 15.53L45.30 15.53L45.30 15.53Q45.25 15.40 45.21 15.25L45.21 15.25L45.21 15.25Q44.94 14.71 44.94 13.87L44.94 13.87L44.94 13.87Q44.74 13.13 44.20 10.91L44.20 10.91L44.11 10.58L44.11 10.58Q43.82 9.73 43.64 8.82L43.64 8.82L43.64 8.82Q43.46 7.91 43.26 6.69L43.26 6.69L43.09 5.64L43.09 5.64Q42.87 4.40 42.87 4.09L42.87 4.09L42.87 4.09Q42.87 3.91 42.59 3.91L42.59 3.91L42.21 3.92L42.21 3.92Q42.21 3.79 42.18 3.51L42.18 3.51L42.18 3.51Q42.14 3.30 42.14 3.11L42.14 3.11L42.14 3.11Q42.14 2.93 42.50 2.93L42.50 2.93L42.91 2.94L42.91 2.94Q44.32 2.94 44.94 2.90L44.94 2.90L44.94 2.90Q45.19 2.88 45.32 3.02L45.32 3.02L45.32 3.02Q45.44 3.16 45.44 3.39L45.44 3.39L45.44 3.39Q45.44 3.71 45.22 3.99L45.22 3.99L45.22 3.99Q45.00 4.27 44.65 4.27L44.65 4.27L44.65 4.27Q44.65 4.96 44.77 5.76L44.77 5.76L44.77 5.76Q44.90 6.57 45.14 7.71L45.14 7.71L45.14 7.71Q45.15 7.85 45.21 8.11L45.21 8.11L45.21 8.11Q45.49 9.81 45.71 10.84L45.71 10.84L45.71 10.84Q45.93 11.87 46.31 12.78L46.31 12.78L46.31 12.78Q46.33 12.59 46.54 11.89L46.54 11.89L46.54 11.89Q46.84 10.91 46.84 10.58L46.84 10.58L46.84 10.58Q46.94 10.11 47.10 9.53L47.10 9.53L47.10 9.53Q47.26 8.95 47.33 8.69L47.33 8.69L47.33 8.69Q47.68 7.42 47.89 6.50L47.89 6.50L47.89 6.50Q48.09 5.59 48.22 4.55L48.22 4.55L48.22 4.55Q48.22 4.45 48.28 4.35L48.28 4.35L48.28 4.35Q48.34 4.24 48.34 4.20L48.34 4.20L48.34 4.20Q48.34 4.12 48.22 4.00L48.22 4.00L48.22 4.00Q48.12 3.91 47.87 3.77L47.87 3.77L47.87 3.77Q47.61 3.64 47.50 3.53L47.50 3.53L47.50 3.53Q47.39 3.42 47.39 3.18L47.39 3.18L47.39 3.18Q47.42 3.18 47.49 3.16L47.49 3.16L47.49 3.16Q47.56 3.15 47.62 3.08L47.62 3.08L47.62 3.08Q47.68 3.01 47.68 2.88L47.68 2.88ZM56.56 5.08L56.56 5.08Q56.49 4.98 56.43 4.82L56.43 4.82L56.43 4.82Q56.42 4.72 56.42 4.51L56.42 4.51L56.42 4.51Q56.42 4.28 56.39 4.16L56.39 4.16L56.39 4.16Q56.36 4.03 56.27 3.95L56.27 3.95L56.27 3.95Q55.99 3.79 55.69 3.65L55.69 3.65L55.69 3.65Q55.05 3.65 54.56 3.70L54.56 3.70L54.56 3.70Q54.08 3.75 53.70 3.95L53.70 3.95L53.70 3.95Q53.55 4.09 53.50 4.30L53.50 4.30L53.50 4.30Q53.45 4.52 53.45 4.90L53.45 4.90L53.45 4.90Q53.45 5.56 53.42 6.26L53.42 6.26L53.41 7.07L53.41 7.07Q53.41 7.28 53.48 7.91L53.48 7.91L53.48 7.91Q53.54 8.33 53.54 8.50L53.54 8.50L53.54 8.50Q53.54 8.83 53.41 9.09L53.41 9.09L53.41 9.09Q53.61 9.25 54.05 9.30L54.05 9.30L54.05 9.30Q54.49 9.35 55.12 9.35L55.12 9.35L55.12 9.35Q55.12 9.00 55.17 8.76L55.17 8.76L55.17 8.76Q55.22 8.51 55.41 8.51L55.41 8.51L55.41 8.51Q55.62 8.51 55.69 8.55L55.69 8.55L55.69 8.55Q55.76 8.58 55.99 8.79L55.99 8.79L55.99 8.79Q55.92 8.93 55.92 9.10L55.92 9.10L55.92 9.10Q55.90 9.17 55.90 9.34L55.90 9.34L55.90 9.34Q55.90 9.63 55.94 9.95L55.94 9.95L55.94 9.95Q55.97 10.35 55.97 10.51L55.97 10.51L55.97 10.51Q55.97 10.79 55.91 10.94L55.91 10.94L55.91 10.94Q55.85 11.09 55.69 11.09L55.69 11.09L55.69 11.09Q55.65 11.06 55.51 10.98L55.51 10.98L55.51 10.98Q55.37 10.89 55.24 10.77L55.24 10.77L55.24 10.77Q55.12 10.64 55.12 10.51L55.12 10.51L55.12 10.22L53.70 10.22L53.70 10.22Q53.55 10.67 53.55 11.41L53.55 11.41L53.55 11.41Q53.55 11.89 53.59 12.35L53.59 12.35L53.59 12.35Q53.62 12.91 53.62 13.12L53.62 13.12L53.62 13.12Q53.62 13.17 53.66 14.64L53.66 14.64L53.66 14.64Q53.70 15.26 53.70 15.65L53.70 15.65L53.70 15.65Q54.28 15.85 54.73 15.89L54.73 15.89L54.73 15.89Q55.19 15.93 55.99 15.93L55.99 15.93L55.99 15.93Q56.20 15.83 56.24 15.64L56.24 15.64L56.24 15.64Q56.28 15.51 56.28 15.23L56.28 15.23L56.28 15.23Q56.28 14.94 56.33 14.78L56.33 14.78L56.33 14.78Q56.38 14.62 56.56 14.52L56.56 14.52L56.56 14.52Q56.94 14.52 57.04 14.90L57.04 14.90L57.04 14.90Q57.13 15.29 57.13 15.93L57.13 15.93L57.13 15.93Q57.13 16.13 57.00 16.30L57.00 16.30L57.00 16.30Q56.87 16.48 56.56 16.80L56.56 16.80L55.12 16.80L55.12 16.80Q53.69 16.80 52.69 16.75L52.69 16.75L52.69 16.75Q51.69 16.70 50.55 16.51L50.55 16.51L50.55 15.93L51.70 15.93L51.70 15.93Q51.83 15.19 51.83 14.31L51.83 14.31L51.83 14.31Q51.83 13.82 51.77 12.78L51.77 12.78L51.77 12.78Q51.70 11.87 51.70 11.09L51.70 11.09L51.70 10.51L51.70 7.64L51.70 6.51L51.70 3.95L50.55 3.95L50.55 3.37L50.55 3.37Q51.14 3.22 52.32 3.08L52.32 3.08L52.32 3.08Q53.44 2.94 53.98 2.80L53.98 2.80L56.84 2.80L56.84 2.80Q56.87 2.83 56.94 2.91L56.94 2.91L56.94 2.91Q57.01 2.98 57.07 3.12L57.07 3.12L57.07 3.12Q57.13 3.25 57.13 3.37L57.13 3.37L57.13 3.37Q57.13 3.54 57.20 3.85L57.20 3.85L57.20 3.85Q57.27 4.34 57.27 4.44L57.27 4.44L57.27 4.44Q57.27 4.75 57.12 4.91L57.12 4.91L57.12 4.91Q56.97 5.08 56.56 5.08L56.56 5.08ZM63.71 9.02L63.71 9.02Q64.11 9.52 64.32 10.26L64.32 10.26L64.32 10.26Q64.53 11.00 64.62 11.78L64.62 11.78L64.62 11.78Q64.71 12.56 64.78 13.78L64.78 13.78L64.78 13.78Q64.86 15.19 64.95 15.82L64.95 15.82L64.95 15.82Q65.25 15.82 65.39 15.87L65.39 15.87L65.39 15.87Q65.53 15.92 65.53 16.11L65.53 16.11L65.53 16.11Q65.53 16.80 64.53 16.80L64.53 16.80L64.53 16.80Q64.23 16.80 63.45 16.70L63.45 16.70L63.45 16.70Q63.27 16.52 63.22 16.30L63.22 16.30L63.22 16.21L63.22 16.21Q63.22 16.11 63.31 15.72L63.31 15.72L63.31 15.72Q63.35 15.51 63.40 15.23L63.40 15.23L63.40 15.23Q63.45 14.94 63.45 14.63L63.45 14.63L63.45 14.63Q63.45 14.20 63.38 13.83L63.38 13.83L63.38 13.83Q63.31 13.38 63.31 12.70L63.31 12.70L63.31 12.70Q63.28 11.87 63.20 11.36L63.20 11.36L63.20 11.36Q63.11 10.85 62.79 10.40L62.79 10.40L62.62 10.15L62.62 10.15Q62.43 9.83 62.20 9.60L62.20 9.60L62.20 9.60Q62.20 9.48 62.14 9.41L62.14 9.41L62.14 9.41Q62.08 9.34 61.92 9.24L61.92 9.24L61.92 9.24Q61.73 9.13 61.60 9.02L61.60 9.02L61.60 9.02Q61.31 9.02 61.16 9.07L61.16 9.07L61.16 9.07Q61.01 9.11 61.01 9.30L61.01 9.30L61.01 9.30Q60.87 10.01 60.87 10.88L60.87 10.88L60.87 10.88Q60.87 11.48 60.96 12.54L60.96 12.54L60.96 12.54Q61.01 13.47 61.01 13.80L61.01 13.80L61.01 13.80Q61.01 14.42 61.06 14.82L61.06 14.82L61.06 14.82Q61.11 15.22 61.29 15.62L61.29 15.62L61.29 15.62Q61.29 15.72 61.37 15.79L61.37 15.79L61.37 15.79Q61.45 15.85 61.60 15.92L61.60 15.92L61.60 15.92Q61.74 15.99 61.82 16.04L61.82 16.04L61.82 16.04Q61.89 16.10 61.89 16.20L61.89 16.20L61.89 16.20Q61.89 16.25 61.89 16.42L61.89 16.42L61.89 16.42Q61.89 16.59 61.84 16.66L61.84 16.66L61.84 16.66Q61.78 16.73 61.64 16.73L61.64 16.73L61.64 16.73Q61.39 16.73 61.05 16.69L61.05 16.69L61.05 16.69Q60.93 16.69 60.65 16.67L60.65 16.67L60.65 16.67Q60.37 16.65 60.16 16.65L60.16 16.65L60.16 16.65Q59.53 16.65 59.21 16.81L59.21 16.81L59.21 16.81Q58.83 16.81 58.65 16.79L58.65 16.79L58.65 16.79Q58.46 16.76 58.31 16.63L58.31 16.63L58.31 16.63Q58.16 16.49 58.00 16.20L58.00 16.20L58.00 16.20Q58.21 16.02 58.41 15.97L58.41 15.97L58.41 15.97Q58.60 15.92 58.90 15.92L58.90 15.92L58.90 10.81L58.90 10.81Q58.90 10.67 58.93 10.48L58.93 10.48L58.93 10.48Q58.95 10.29 58.97 10.21L58.97 10.21L58.97 10.21Q59.04 9.88 59.04 9.62L59.04 9.62L59.04 9.62Q59.04 9.30 58.90 9.02L58.90 9.02L58.90 9.02Q58.90 8.82 58.94 8.65L58.94 8.65L58.94 8.65Q59.00 8.29 59.00 8.23L59.00 8.23L59.00 8.23Q59.02 7.76 59.02 7.55L59.02 7.55L59.02 7.55Q59.02 7.11 58.97 6.22L58.97 6.22L58.97 6.22Q58.95 6.05 58.93 5.54L58.93 5.54L58.93 5.54Q58.90 5.03 58.90 4.51L58.90 4.51L58.90 4.51Q58.42 4.51 58.11 4.40L58.11 4.40L58.11 4.40Q57.81 4.30 57.81 4.07L57.81 4.07L57.81 4.07Q57.81 3.64 57.94 3.45L57.94 3.45L57.94 3.45Q58.07 3.26 58.32 3.22L58.32 3.22L58.32 3.22Q58.56 3.18 59.11 3.18L59.11 3.18L59.11 3.18Q59.26 3.18 59.46 3.09L59.46 3.09L59.46 3.09Q59.63 3.01 59.78 3.01L59.78 3.01L59.78 3.01Q60.62 2.87 61.40 2.87L61.40 2.87L61.40 2.87Q62.64 2.87 63.51 3.25L63.51 3.25L63.51 3.25Q64.39 3.63 64.60 4.51L64.60 4.51L64.60 4.51Q64.78 5.24 64.78 5.85L64.78 5.85L64.78 5.85Q64.78 6.47 64.60 6.90L64.60 6.90L64.60 6.90Q64.48 7.18 64.22 7.52L64.22 7.52L64.22 7.52Q63.97 7.85 63.71 8.11L63.71 8.11L63.41 8.41L63.41 8.41Q63.41 8.58 63.56 8.71L63.56 8.71L63.56 8.71Q63.71 8.86 63.71 9.02L63.71 9.02ZM60.73 3.93L60.73 3.93Q60.73 5.31 60.84 7.63L60.84 7.63L60.84 7.63Q60.84 7.78 61.08 7.78L61.08 7.78L61.08 7.78Q61.38 7.78 61.85 7.59L61.85 7.59L61.85 7.59Q62.33 7.39 62.51 7.21L62.51 7.21L62.51 7.21Q62.51 7.04 62.65 6.57L62.65 6.57L62.65 6.57Q62.76 6.22 62.79 6.02L62.79 6.02L62.79 6.02Q62.85 5.73 62.85 5.54L62.85 5.54L62.85 5.54Q62.85 5.40 62.82 5.22L62.82 5.22L62.82 5.22Q62.79 5.04 62.79 4.82L62.79 4.82L62.79 4.82Q62.79 4.56 62.68 4.40L62.68 4.40L62.68 4.40Q62.57 4.24 62.41 4.10L62.41 4.10L62.41 4.10Q62.26 3.96 62.20 3.91L62.20 3.91L60.73 3.93ZM66.19 15.92L67.37 15.92L67.37 15.92Q67.54 15.92 67.68 15.78L67.68 15.78L67.68 15.78Q67.82 15.64 67.97 15.64L67.97 15.64L67.97 12.35L67.97 12.35Q67.97 11.62 67.89 10.93L67.89 10.93L67.89 10.93Q67.82 10.25 67.80 10.12L67.80 10.12L67.80 10.12Q67.68 9.21 67.68 8.78L67.68 8.78L67.68 8.78Q67.68 7.59 67.63 6.85L67.63 6.85L67.63 6.85Q67.58 6.10 67.37 5.52L67.37 5.52L67.37 4.31L67.37 4.31Q67.19 4.31 66.85 4.42L66.85 4.42L66.85 4.42Q66.57 4.51 66.47 4.51L66.47 4.51L66.47 4.51Q66.19 4.51 66.19 4.00L66.19 4.00L66.19 4.00Q66.19 3.89 66.25 3.83L66.25 3.83L66.25 3.83Q66.32 3.77 66.46 3.67L66.46 3.67L66.46 3.67Q66.68 3.54 66.79 3.43L66.79 3.43L67.09 3.12L67.09 3.12Q67.48 2.93 67.88 2.88L67.88 2.88L67.88 2.88Q68.28 2.83 68.88 2.83L68.88 2.83L68.88 2.83Q69.09 2.83 69.37 2.80L69.37 2.80L69.76 2.79L69.76 2.79Q70.04 2.79 70.39 2.84L70.39 2.84L70.39 2.84Q70.42 2.83 70.50 2.81L70.50 2.81L70.50 2.81Q70.57 2.79 70.66 2.83L70.66 2.83L70.66 2.83Q70.81 2.97 71.26 3.28L71.26 3.28L71.26 3.28Q71.34 3.35 71.54 3.48L71.54 3.48L71.54 3.48Q71.74 3.61 71.85 3.72L71.85 3.72L71.85 3.72Q72.25 3.91 72.51 4.27L72.51 4.27L72.51 4.27Q72.76 4.63 73.04 5.21L73.04 5.21L73.04 5.21Q73.42 5.98 73.62 6.55L73.62 6.55L73.62 6.55Q73.82 7.13 73.92 7.91L73.92 7.91L73.96 8.26L73.96 8.26Q73.98 8.36 74.03 8.83L74.03 8.83L74.03 8.83Q74.09 9.31 74.09 9.76L74.09 9.76L74.09 9.76Q74.09 10.50 73.92 11.16L73.92 11.16L73.92 11.16Q73.92 11.98 73.61 12.76L73.61 12.76L73.61 12.76Q73.30 13.54 72.92 14.13L72.92 14.13L72.92 14.13Q72.53 14.71 71.85 15.64L71.85 15.64L71.85 15.64Q71.69 15.71 71.39 15.90L71.39 15.90L71.39 15.90Q70.88 16.20 70.46 16.36L70.46 16.36L70.46 16.36Q70.04 16.52 69.45 16.52L69.45 16.52L68.88 16.52L68.88 16.52Q68.49 16.72 67.97 16.77L67.97 16.77L67.97 16.77Q67.45 16.81 66.79 16.81L66.79 16.81L66.79 16.81Q66.51 16.53 66.35 16.32L66.35 16.32L66.35 16.32Q66.19 16.11 66.19 15.92L66.19 15.92ZM69.45 3.72L69.45 3.72Q69.26 3.92 69.26 4.56L69.26 4.56L69.27 5.21L69.27 5.21Q69.27 5.91 69.31 6.45L69.31 6.45L69.31 6.45Q69.34 7.04 69.34 7.29L69.34 7.29L69.34 7.29Q69.34 7.56 69.40 8.18L69.40 8.18L69.40 8.18Q69.45 8.88 69.45 9.38L69.45 9.38L69.45 12.35L69.45 12.35Q69.45 12.63 69.52 12.92L69.52 12.92L69.52 12.92Q69.59 13.20 69.61 13.26L69.61 13.26L69.61 13.26Q69.76 13.80 69.76 14.13L69.76 14.13L69.76 14.13Q69.76 14.39 69.68 14.70L69.68 14.70L69.68 14.70Q69.62 14.95 69.62 15.02L69.62 15.02L69.62 15.02Q69.62 15.19 69.76 15.33L69.76 15.33L69.76 15.33Q69.90 15.33 70.21 15.19L70.21 15.19L70.21 15.19Q70.49 15.04 70.66 15.04L70.66 15.04L70.66 15.04Q70.66 14.90 70.73 14.83L70.73 14.83L70.73 14.83Q70.80 14.76 70.87 14.74L70.87 14.74L70.87 14.74Q70.94 14.73 70.97 14.73L70.97 14.73L70.97 14.73Q71.15 14.73 71.20 14.62L71.20 14.62L71.20 14.62Q71.25 14.50 71.25 14.43L71.25 14.43L71.25 14.43Q71.65 13.85 71.75 13.10L71.75 13.10L71.75 13.10Q71.85 12.35 71.85 11.16L71.85 11.16L71.85 11.16Q71.85 10.99 71.90 10.54L71.90 10.54L71.90 10.54Q71.97 9.84 71.97 9.66L71.97 9.66L71.97 9.66Q71.97 9.16 71.85 8.78L71.85 8.78L71.85 7.88L71.85 7.88Q71.79 7.59 71.67 6.82L71.67 6.82L71.67 6.82Q71.48 5.71 71.29 5.09L71.29 5.09L71.29 5.09Q71.11 4.47 70.66 4.00L70.66 4.00L70.66 4.00Q70.46 3.81 70.22 3.77L70.22 3.77L70.22 3.77Q69.99 3.72 69.45 3.72L69.45 3.72ZM77.45 3.85L77.45 3.85Q77.32 4.19 77.32 4.66L77.32 4.66L77.32 4.66Q77.32 5.04 77.39 5.50L77.39 5.50L77.39 5.50Q77.41 5.60 77.43 5.90L77.43 5.90L77.43 5.90Q77.46 6.20 77.45 6.44L77.45 6.44L77.45 6.44Q77.42 7.29 77.34 9.17L77.34 9.17L77.34 9.17Q77.27 10.77 77.21 12.49L77.21 12.49L77.21 12.49Q77.15 14.21 77.15 15.65L77.15 15.65L77.15 15.65Q77.29 15.79 77.60 15.95L77.60 15.95L77.60 15.95Q77.88 16.09 78.01 16.21L78.01 16.21L78.01 16.21Q78.01 16.34 77.95 16.40L77.95 16.40L77.95 16.40Q77.90 16.46 77.76 16.56L77.76 16.56L77.76 16.56Q77.59 16.66 77.45 16.80L77.45 16.80L77.45 16.80Q77.29 16.73 76.92 16.67L76.92 16.67L76.92 16.67Q76.72 16.66 76.26 16.66L76.26 16.66L76.26 16.66Q75.78 16.66 75.47 16.63L75.47 16.63L75.47 16.63Q75.15 16.60 74.86 16.51L74.86 16.51L74.86 16.51Q74.83 16.49 74.78 16.41L74.78 16.41L74.78 16.41Q74.73 16.32 74.73 16.21L74.73 16.21L74.73 16.21Q74.73 16.06 74.86 15.95L74.86 15.95L74.86 15.95Q74.86 15.85 74.90 15.83L74.90 15.83L74.90 15.83Q74.94 15.81 75.04 15.81L75.04 15.81L75.04 15.81Q75.17 15.81 75.22 15.79L75.22 15.79L75.22 15.79Q75.36 15.74 75.42 15.65L75.42 15.65L75.42 15.65Q75.54 15.53 75.54 15.29L75.54 15.29L75.54 15.29Q75.54 15.18 75.52 15.03L75.52 15.03L75.52 15.03Q75.49 14.88 75.47 14.83L75.47 14.83L75.47 14.83Q75.42 14.57 75.42 14.50L75.42 14.50L75.42 14.50Q75.42 14.07 75.45 13.23L75.45 13.23L75.46 12.00L75.46 12.00Q75.45 11.93 75.43 11.74L75.43 11.74L75.43 11.74Q75.42 11.55 75.42 11.33L75.42 11.33L75.42 8.74L75.42 3.85L75.42 3.85Q75.15 3.85 75.00 3.80L75.00 3.80L75.00 3.80Q74.86 3.75 74.86 3.56L74.86 3.56L74.86 2.98L74.86 2.98Q74.86 2.86 74.96 2.86L74.96 2.86L74.96 2.86Q75.00 2.86 75.24 2.92L75.24 2.92L75.24 2.92Q75.47 2.98 75.71 2.98L75.71 2.98L75.71 2.98Q75.87 2.98 76.37 2.93L76.37 2.93L76.37 2.93Q76.48 2.91 76.78 2.88L76.78 2.88L76.78 2.88Q77.07 2.86 77.29 2.86L77.29 2.86L77.29 2.86Q77.77 2.86 78.01 2.98L78.01 2.98L78.01 2.98Q78.12 3.09 78.12 3.26L78.12 3.26L78.12 3.26Q78.12 3.49 77.93 3.67L77.93 3.67L77.93 3.67Q77.74 3.85 77.45 3.85L77.45 3.85ZM90.24 3.37L90.24 3.37Q90.24 3.29 90.30 3.18L90.30 3.18L90.30 3.18Q90.36 3.07 90.55 3.07L90.55 3.07L90.55 3.07Q90.85 3.07 90.99 3.12L90.99 3.12L90.99 3.12Q91.13 3.16 91.13 3.37L91.13 3.37L91.13 3.37Q91.27 3.51 91.27 3.74L91.27 3.74L91.27 3.74Q91.27 3.91 91.18 4.21L91.18 4.21L91.18 4.21Q91.13 4.47 91.13 4.54L91.13 4.54L91.13 4.54Q91.08 4.63 90.92 5.01L90.92 5.01L90.92 5.01Q90.76 5.38 90.57 5.59L90.57 5.59L90.57 5.59Q90.38 5.80 90.17 5.80L90.17 5.80L90.17 5.80Q90.05 5.80 89.94 5.74L89.94 5.74L89.94 5.74Q89.81 5.61 89.81 5.36L89.81 5.36L89.81 5.36Q89.81 5.24 89.87 4.87L89.87 4.87L89.87 4.87Q89.94 4.38 89.94 4.26L89.94 4.26L89.94 4.26Q89.71 4.02 89.29 3.84L89.29 3.84L89.29 3.84Q88.87 3.65 88.45 3.65L88.45 3.65L88.45 3.65Q88.23 4.09 88.23 5.00L88.23 5.00L88.23 5.00Q88.23 5.91 88.45 6.36L88.45 6.36L88.45 6.36Q88.63 6.73 88.96 7.02L88.96 7.02L88.96 7.02Q89.29 7.31 89.87 7.70L89.87 7.70L89.87 7.70Q90.50 8.13 90.89 8.48L90.89 8.48L90.89 8.48Q91.28 8.82 91.56 9.31L91.56 9.31L91.56 9.31Q91.91 9.91 92.13 10.37L92.13 10.37L92.13 10.37Q92.36 10.81 92.47 11.33L92.47 11.33L92.47 11.33Q92.58 11.84 92.58 12.33L92.58 12.33L92.58 12.33Q92.58 13.17 92.45 13.76L92.45 13.76L92.45 13.76Q92.32 14.34 92.02 14.99L92.02 14.99L92.02 14.99Q91.69 15.72 91.13 16.14L91.13 16.14L91.13 16.14Q90.57 16.55 89.66 16.77L89.66 16.77L88.45 16.77L88.45 16.77Q88.07 16.77 87.55 16.37L87.55 16.37L87.55 16.37Q87.02 15.96 86.67 15.58L86.67 15.58L86.67 15.58Q86.24 14.77 86.24 13.87L86.24 13.87L86.24 13.87Q86.24 13.44 86.37 12.91L86.37 12.91L86.37 12.91Q86.21 12.91 86.06 13.06L86.06 13.06L86.06 13.06Q85.93 13.22 85.78 13.22L85.78 13.22L85.78 13.22Q85.57 13.01 85.52 12.80L85.52 12.80L85.52 12.80Q85.47 12.60 85.47 12.32L85.47 12.32L85.47 12.32Q85.95 12.15 86.58 12.05L86.58 12.05L86.58 12.05Q86.88 12.00 87.22 11.91L87.22 11.91L87.22 11.91Q87.56 11.83 87.86 11.70L87.86 11.70L87.86 11.70Q88.19 11.70 88.38 11.91L88.38 11.91L88.38 11.91Q88.58 12.12 88.58 12.43L88.58 12.43L88.58 12.43Q88.58 12.67 88.45 12.91L88.45 12.91L88.45 12.91Q88.16 12.91 87.96 12.96L87.96 12.96L87.96 12.96Q87.77 13.01 87.56 13.22L87.56 13.22L87.56 13.22Q87.25 13.52 87.25 14.17L87.25 14.17L87.25 14.17Q87.25 14.73 87.49 15.24L87.49 15.24L87.49 15.24Q87.74 15.75 88.14 15.89L88.14 15.89L88.14 15.89Q88.33 15.89 88.45 15.74L88.45 15.74L88.45 15.74Q88.47 15.72 88.55 15.65L88.55 15.65L88.55 15.65Q88.63 15.58 88.76 15.58L88.76 15.58L88.76 15.58Q89.74 15.09 90.25 14.05L90.25 14.05L90.25 14.05Q90.76 13.01 90.76 11.68L90.76 11.68L90.76 11.68Q90.76 10.81 90.55 9.93L90.55 9.93L90.55 9.93Q90.31 9.48 90.06 9.22L90.06 9.22L90.06 9.22Q89.80 8.96 89.35 8.72L89.35 8.72L89.35 8.72Q88.94 8.53 88.69 8.32L88.69 8.32L88.69 8.32Q88.44 8.12 88.14 7.83L88.14 7.83L88.14 7.83Q88.00 7.69 87.77 7.55L87.77 7.55L87.77 7.55Q87.40 7.34 87.15 7.07L87.15 7.07L87.15 7.07Q87.07 6.97 86.74 6.65L86.74 6.65L86.74 6.65Q86.42 6.33 86.24 6.03L86.24 6.03L86.24 6.03Q86.06 5.73 86.06 5.46L86.06 5.46L86.06 5.46Q85.99 5.25 85.99 4.97L85.99 4.97L85.99 4.97Q85.99 4.03 86.95 3.07L86.95 3.07L86.95 3.07Q87.07 3.07 87.19 3.02L87.19 3.02L87.19 3.02Q87.32 2.97 87.36 2.95L87.36 2.95L87.36 2.95Q87.75 2.76 88.14 2.76L88.14 2.76L88.14 2.76Q88.41 2.76 88.59 2.79L88.59 2.79L88.59 2.79Q88.77 2.83 89.04 2.91L89.04 2.91L89.66 3.07L89.66 3.07Q89.68 3.09 89.77 3.16L89.77 3.16L89.77 3.16Q89.85 3.23 89.98 3.30L89.98 3.30L89.98 3.30Q90.10 3.37 90.24 3.37L90.24 3.37ZM100.35 3.96L100.35 3.96Q100.16 4.34 100.11 4.87L100.11 4.87L100.11 4.87Q100.06 5.39 100.06 6.26L100.06 6.26L100.06 8.81L100.06 11.09L100.06 11.09Q100.06 11.94 100.21 13.38L100.21 13.38L100.21 13.38Q100.35 14.95 100.35 15.65L100.35 15.65L100.35 15.65Q100.46 15.76 100.66 15.88L100.66 15.88L100.66 15.88Q100.80 15.97 100.86 16.04L100.86 16.04L100.86 16.04Q100.93 16.10 100.93 16.23L100.93 16.23L100.93 16.80L100.93 16.80Q100.93 16.79 100.88 16.73L100.88 16.73L100.88 16.73Q100.84 16.67 100.79 16.67L100.79 16.67L100.79 16.67Q100.72 16.67 100.65 16.74L100.65 16.74L100.65 16.74Q100.46 16.80 100.35 16.81L100.35 16.81L100.35 16.81Q100.24 16.81 100.21 16.81L100.21 16.81L99.88 16.81L99.88 16.81Q99.72 16.80 99.20 16.80L99.20 16.80L98.53 16.81L98.53 16.81Q98.36 16.65 98.36 16.56L98.36 16.56L98.36 16.56Q98.36 16.49 98.48 16.39L98.48 16.39L98.48 16.39Q98.59 16.28 98.64 16.23L98.64 16.23L98.64 16.23Q98.64 16.13 98.71 16.07L98.71 16.07L98.71 16.07Q98.78 16.00 98.92 15.93L98.92 15.93L98.92 15.93Q99.06 15.86 99.13 15.81L99.13 15.81L99.13 15.81Q99.20 15.75 99.20 15.65L99.20 15.65L99.20 15.65Q99.33 14.69 99.33 13.30L99.33 13.30L99.33 13.30Q99.33 12.22 99.26 10.86L99.26 10.86L99.26 10.86Q99.20 9.27 99.20 8.53L99.20 8.53L99.20 8.53Q99.20 8.40 99.14 8.33L99.14 8.33L99.14 8.33Q99.08 8.26 99.01 8.25L99.01 8.25L99.01 8.25Q98.94 8.23 98.91 8.23L98.91 8.23L98.91 8.23Q98.55 8.11 97.99 8.11L97.99 8.11L97.99 8.11Q97.54 8.11 96.98 8.18L96.98 8.18L96.98 8.18Q96.33 8.23 96.07 8.23L96.07 8.23L96.07 8.23Q95.68 8.62 95.59 9.04L95.59 9.04L95.59 9.04Q95.49 9.45 95.49 10.25L95.49 10.25L95.49 13.37L95.49 14.24L95.49 14.24Q95.58 14.38 95.63 14.63L95.63 14.63L95.63 14.63Q95.65 14.74 95.65 14.95L95.65 14.95L95.65 14.95Q95.65 15.16 95.67 15.32L95.67 15.32L95.67 15.32Q95.69 15.47 95.79 15.65L95.79 15.65L95.79 15.65Q95.94 15.65 96.13 15.83L96.13 15.83L96.13 15.83Q96.32 16.00 96.32 16.18L96.32 16.18L96.32 16.18Q96.32 16.39 96.07 16.51L96.07 16.51L96.07 16.51Q95.79 16.51 95.02 16.58L95.02 16.58L95.02 16.58Q94.49 16.63 94.22 16.63L94.22 16.63L94.22 16.63Q93.72 16.63 93.23 16.51L93.23 16.51L93.23 16.51Q93.20 16.46 93.15 16.31L93.15 16.31L93.15 16.31Q93.10 16.16 93.10 16.00L93.10 16.00L93.10 16.00Q93.10 15.78 93.23 15.65L93.23 15.65L93.80 15.65L93.80 14.52L93.80 7.95L93.80 7.38L93.80 7.10L93.80 6.26L93.80 5.96L93.80 5.96Q93.73 5.80 93.67 5.49L93.67 5.49L93.67 5.49Q93.66 5.32 93.66 4.96L93.66 4.96L93.66 4.96Q93.66 4.61 93.63 4.38L93.63 4.38L93.63 4.38Q93.60 4.14 93.51 3.96L93.51 3.96L93.51 3.96Q93.48 3.96 93.40 3.95L93.40 3.95L93.40 3.95Q93.32 3.93 93.19 3.86L93.19 3.86L93.19 3.86Q93.06 3.79 92.93 3.67L92.93 3.67L92.93 3.67Q92.90 3.65 92.86 3.56L92.86 3.56L92.86 3.56Q92.81 3.47 92.81 3.37L92.81 3.37L92.81 3.37Q92.81 3.22 92.93 3.09L92.93 3.09L94.08 3.09L94.08 3.09Q94.26 3.09 94.68 3.04L94.68 3.04L94.68 3.04Q95.10 2.97 95.42 2.97L95.42 2.97L95.42 2.97Q95.82 2.97 96.07 3.09L96.07 3.09L96.07 3.09Q96.29 3.09 96.47 3.28L96.47 3.28L96.47 3.28Q96.64 3.46 96.64 3.67L96.64 3.67L96.64 3.67Q96.64 3.86 96.39 3.91L96.39 3.91L96.39 3.91Q96.14 3.96 95.79 3.96L95.79 3.96L95.79 3.96Q95.66 4.09 95.66 4.26L95.66 4.26L95.66 4.26Q95.66 4.34 95.72 4.56L95.72 4.56L95.72 4.56Q95.79 4.94 95.79 5.11L95.79 5.11L95.79 5.11Q95.79 5.28 95.73 5.73L95.73 5.73L95.73 5.73Q95.66 6.12 95.66 6.47L95.66 6.47L95.66 6.47Q95.66 6.86 95.79 7.10L95.79 7.10L95.79 7.10Q96.66 7.31 97.50 7.31L97.50 7.31L97.50 7.31Q98.36 7.31 99.20 7.10L99.20 7.10L99.20 7.10Q99.20 6.10 99.16 5.31L99.16 5.31L99.16 5.31Q99.11 4.52 98.91 3.96L98.91 3.96L98.91 3.96Q98.85 3.88 98.67 3.82L98.67 3.82L98.67 3.82Q98.57 3.81 98.35 3.81L98.35 3.81L98.35 3.81Q98.14 3.81 98.01 3.79L98.01 3.79L98.01 3.79Q97.89 3.77 97.79 3.67L97.79 3.67L97.79 3.09L97.79 3.09Q98.46 2.77 99.04 2.77L99.04 2.77L99.04 2.77Q99.26 2.77 99.48 2.81L99.48 2.81L99.48 2.81Q99.76 2.84 99.82 2.84L99.82 2.84L99.82 2.84Q99.96 2.84 100.09 2.83L100.09 2.83L100.09 2.83Q100.21 2.81 100.35 2.81L100.35 2.81L100.35 2.81Q100.56 2.91 100.67 3.10L100.67 3.10L100.67 3.10Q100.79 3.29 100.79 3.49L100.79 3.49L100.79 3.49Q100.79 3.68 100.67 3.82L100.67 3.82L100.67 3.82Q100.56 3.96 100.35 3.96L100.35 3.96Z"></path></g><defs data-v-423bf9ae=""><linearGradient data-v-423bf9ae="" gradientTransform="rotate(25)" id="649cc0a5-1584-405d-9896-ce0961573f5e" x1="0%" y1="0%" x2="100%" y2="0%"><stop data-v-423bf9ae="" offset="0%" style="stop-color: rgb(81, 164, 251); stop-opacity: 1;"></stop><stop data-v-423bf9ae="" offset="100%" style="stop-color: rgb(81, 164, 251); stop-opacity: 1;"></stop></linearGradient></defs><g data-v-423bf9ae="" id="d44a142a-7eca-4d4a-992e-f8f4b639e344" transform="matrix(3.1025924503236535,0,0,3.1025924503236535,0.3585207948215441,-8.290956827928717)" stroke="none" fill="url(#649cc0a5-1584-405d-9896-ce0961573f5e)"><path d="M16 26.219l7.496-12.954H8.504zM7.496 19.046L0 32h14.992zM17.008 32H32l-7.496-12.954zM3.587 2.992L0 9.191h7.174zM8.275 9.191h7.174l-3.587-6.199zM20.138 2.992l-3.587 6.199h7.174zM24.826 9.191H32l-3.587-6.199z"></path></g><!----><g data-v-423bf9ae="" id="40908eab-d632-4c46-a15b-55ecfd7f1d2f" fill="#193655" transform="matrix(1.6336148083374238,0,0,1.6336148083374238,117.97606290982776,50.72106961111459)"><path d="M0.80 15.68L0.80 14.59L1.64 14.59L1.64 6.97L0.80 6.97L0.80 5.88L4.76 5.88L4.76 5.88Q5.46 5.88 6.00 6.08L6.00 6.08L6.00 6.08Q6.54 6.27 6.91 6.61L6.91 6.61L6.91 6.61Q7.28 6.94 7.47 7.41L7.47 7.41L7.47 7.41Q7.66 7.88 7.66 8.43L7.66 8.43L7.66 8.60L7.66 8.60Q7.66 9.00 7.53 9.34L7.53 9.34L7.53 9.34Q7.41 9.67 7.18 9.94L7.18 9.94L7.18 9.94Q6.96 10.21 6.66 10.39L6.66 10.39L6.66 10.39Q6.36 10.58 6.01 10.68L6.01 10.68L6.01 10.85L6.01 10.85Q6.71 11.05 7.18 11.60L7.18 11.60L7.18 11.60Q7.66 12.15 7.66 12.95L7.66 12.95L7.66 13.12L7.66 13.12Q7.66 13.66 7.47 14.13L7.47 14.13L7.47 14.13Q7.28 14.60 6.91 14.95L6.91 14.95L6.91 14.95Q6.54 15.29 6.00 15.48L6.00 15.48L6.00 15.48Q5.46 15.68 4.76 15.68L4.76 15.68L0.80 15.68ZM2.81 11.31L2.81 14.59L4.68 14.59L4.68 14.59Q5.50 14.59 6.02 14.17L6.02 14.17L6.02 14.17Q6.54 13.76 6.54 13.03L6.54 13.03L6.54 12.95L6.54 12.95Q6.54 12.19 6.05 11.75L6.05 11.75L6.05 11.75Q5.56 11.31 4.72 11.31L4.72 11.31L2.81 11.31ZM2.81 6.97L2.81 10.22L4.72 10.22L4.72 10.22Q5.56 10.22 6.05 9.79L6.05 9.79L6.05 9.79Q6.54 9.35 6.54 8.60L6.54 8.60L6.54 8.51L6.54 8.51Q6.54 7.80 6.02 7.38L6.02 7.38L6.02 7.38Q5.50 6.97 4.68 6.97L4.68 6.97L2.81 6.97ZM16.88 15.68L16.88 5.88L22.82 5.88L22.82 6.97L18.06 6.97L18.06 10.22L22.74 10.22L22.74 11.31L18.06 11.31L18.06 14.59L22.90 14.59L22.90 15.68L16.88 15.68ZM37.73 9.21L37.73 8.71L37.73 8.71Q37.73 8.23 37.54 7.87L37.54 7.87L37.54 7.87Q37.35 7.50 37.03 7.27L37.03 7.27L37.03 7.27Q36.71 7.03 36.29 6.90L36.29 6.90L36.29 6.90Q35.87 6.78 35.41 6.78L35.41 6.78L35.41 6.78Q35 6.78 34.64 6.88L34.64 6.88L34.64 6.88Q34.27 6.99 33.98 7.18L33.98 7.18L33.98 7.18Q33.70 7.38 33.53 7.66L33.53 7.66L33.53 7.66Q33.36 7.95 33.36 8.33L33.36 8.33L33.36 8.41L33.36 8.41Q33.36 8.82 33.53 9.11L33.53 9.11L33.53 9.11Q33.70 9.39 34.03 9.60L34.03 9.60L34.03 9.60Q34.36 9.80 34.85 9.93L34.85 9.93L34.85 9.93Q35.34 10.07 35.99 10.16L35.99 10.16L35.99 10.16Q37.53 10.40 38.26 11.07L38.26 11.07L38.26 11.07Q38.99 11.73 38.99 12.85L38.99 12.85L38.99 13.02L38.99 13.02Q38.99 13.65 38.77 14.17L38.77 14.17L38.77 14.17Q38.56 14.70 38.13 15.08L38.13 15.08L38.13 15.08Q37.70 15.46 37.07 15.67L37.07 15.67L37.07 15.67Q36.44 15.88 35.62 15.88L35.62 15.88L35.62 15.88Q34.68 15.88 33.96 15.60L33.96 15.60L33.96 15.60Q33.24 15.33 32.75 14.85L32.75 14.85L32.75 14.85Q32.27 14.36 32.02 13.71L32.02 13.71L32.02 13.71Q31.77 13.06 31.77 12.29L31.77 12.29L31.77 11.87L32.94 11.87L32.94 12.21L32.94 12.21Q32.94 13.50 33.65 14.14L33.65 14.14L33.65 14.14Q34.36 14.78 35.62 14.78L35.62 14.78L35.62 14.78Q36.71 14.78 37.26 14.30L37.26 14.30L37.26 14.30Q37.81 13.82 37.81 13.02L37.81 13.02L37.81 12.94L37.81 12.94Q37.81 12.17 37.25 11.76L37.25 11.76L37.25 11.76Q36.68 11.35 35.41 11.17L35.41 11.17L35.41 11.17Q34.66 11.07 34.07 10.87L34.07 10.87L34.07 10.87Q33.47 10.67 33.05 10.34L33.05 10.34L33.05 10.34Q32.63 10.01 32.41 9.55L32.41 9.55L32.41 9.55Q32.19 9.09 32.19 8.46L32.19 8.46L32.19 8.29L32.19 8.29Q32.19 7.71 32.42 7.24L32.42 7.24L32.42 7.24Q32.66 6.76 33.09 6.41L33.09 6.41L33.09 6.41Q33.52 6.06 34.11 5.87L34.11 5.87L34.11 5.87Q34.71 5.68 35.42 5.68L35.42 5.68L35.42 5.68Q36.25 5.68 36.90 5.92L36.90 5.92L36.90 5.92Q37.55 6.16 38.00 6.56L38.00 6.56L38.00 6.56Q38.44 6.96 38.67 7.50L38.67 7.50L38.67 7.50Q38.91 8.04 38.91 8.62L38.91 8.62L38.91 9.21L37.73 9.21ZM47.54 6.97L47.54 5.88L54.43 5.88L54.43 6.97L51.58 6.97L51.58 15.68L50.40 15.68L50.40 6.97L47.54 6.97ZM84.43 9.21L84.43 8.71L84.43 8.71Q84.43 8.23 84.25 7.87L84.25 7.87L84.25 7.87Q84.06 7.50 83.73 7.27L83.73 7.27L83.73 7.27Q83.41 7.03 82.99 6.90L82.99 6.90L82.99 6.90Q82.57 6.78 82.11 6.78L82.11 6.78L82.11 6.78Q81.70 6.78 81.34 6.88L81.34 6.88L81.34 6.88Q80.98 6.99 80.69 7.18L80.69 7.18L80.69 7.18Q80.40 7.38 80.23 7.66L80.23 7.66L80.23 7.66Q80.07 7.95 80.07 8.33L80.07 8.33L80.07 8.41L80.07 8.41Q80.07 8.82 80.23 9.11L80.23 9.11L80.23 9.11Q80.40 9.39 80.73 9.60L80.73 9.60L80.73 9.60Q81.06 9.80 81.55 9.93L81.55 9.93L81.55 9.93Q82.04 10.07 82.70 10.16L82.70 10.16L82.70 10.16Q84.24 10.40 84.97 11.07L84.97 11.07L84.97 11.07Q85.69 11.73 85.69 12.85L85.69 12.85L85.69 13.02L85.69 13.02Q85.69 13.65 85.48 14.17L85.48 14.17L85.48 14.17Q85.26 14.70 84.83 15.08L84.83 15.08L84.83 15.08Q84.41 15.46 83.78 15.67L83.78 15.67L83.78 15.67Q83.15 15.88 82.32 15.88L82.32 15.88L82.32 15.88Q81.38 15.88 80.66 15.60L80.66 15.60L80.66 15.60Q79.94 15.33 79.46 14.85L79.46 14.85L79.46 14.85Q78.97 14.36 78.72 13.71L78.72 13.71L78.72 13.71Q78.47 13.06 78.47 12.29L78.47 12.29L78.47 11.87L79.65 11.87L79.65 12.21L79.65 12.21Q79.65 13.50 80.35 14.14L80.35 14.14L80.35 14.14Q81.06 14.78 82.32 14.78L82.32 14.78L82.32 14.78Q83.41 14.78 83.97 14.30L83.97 14.30L83.97 14.30Q84.52 13.82 84.52 13.02L84.52 13.02L84.52 12.94L84.52 12.94Q84.52 12.17 83.95 11.76L83.95 11.76L83.95 11.76Q83.38 11.35 82.11 11.17L82.11 11.17L82.11 11.17Q81.37 11.07 80.77 10.87L80.77 10.87L80.77 10.87Q80.18 10.67 79.76 10.34L79.76 10.34L79.76 10.34Q79.34 10.01 79.11 9.55L79.11 9.55L79.11 9.55Q78.89 9.09 78.89 8.46L78.89 8.46L78.89 8.29L78.89 8.29Q78.89 7.71 79.13 7.24L79.13 7.24L79.13 7.24Q79.37 6.76 79.79 6.41L79.79 6.41L79.79 6.41Q80.22 6.06 80.81 5.87L80.81 5.87L80.81 5.87Q81.41 5.68 82.12 5.68L82.12 5.68L82.12 5.68Q82.95 5.68 83.60 5.92L83.60 5.92L83.60 5.92Q84.25 6.16 84.70 6.56L84.70 6.56L84.70 6.56Q85.15 6.96 85.38 7.50L85.38 7.50L85.38 7.50Q85.61 8.04 85.61 8.62L85.61 8.62L85.61 9.21L84.43 9.21ZM94.25 11.87L94.25 9.69L94.25 9.69Q94.25 7.78 95.16 6.73L95.16 6.73L95.16 6.73Q96.07 5.68 97.69 5.68L97.69 5.68L97.69 5.68Q99.32 5.68 100.23 6.73L100.23 6.73L100.23 6.73Q101.14 7.78 101.14 9.69L101.14 9.69L101.14 11.87L101.14 11.87Q101.14 13.83 100.23 14.85L100.23 14.85L100.23 14.85Q99.32 15.88 97.69 15.88L97.69 15.88L97.69 15.88Q96.07 15.88 95.16 14.85L95.16 14.85L95.16 14.85Q94.25 13.83 94.25 11.87L94.25 11.87ZM97.69 14.78L97.69 14.78L97.69 14.78Q98.83 14.78 99.39 14.01L99.39 14.01L99.39 14.01Q99.96 13.23 99.96 11.79L99.96 11.79L99.96 9.77L99.96 9.77Q99.96 8.43 99.39 7.60L99.39 7.60L99.39 7.60Q98.83 6.78 97.69 6.78L97.69 6.78L97.69 6.78Q96.56 6.78 95.99 7.60L95.99 7.60L95.99 7.60Q95.42 8.43 95.42 9.77L95.42 9.77L95.42 11.79L95.42 11.79Q95.42 13.23 95.99 14.01L95.99 14.01L95.99 14.01Q96.56 14.78 97.69 14.78ZM110.19 15.68L110.19 5.88L111.37 5.88L111.37 14.59L116.49 14.59L116.49 15.68L110.19 15.68ZM125.47 5.88L126.64 5.88L126.64 12.38L126.64 12.38Q126.64 13.57 127.20 14.17L127.20 14.17L127.20 14.17Q127.75 14.78 128.83 14.78L128.83 14.78L128.83 14.78Q129.91 14.78 130.46 14.17L130.46 14.17L130.46 14.17Q131.01 13.57 131.01 12.38L131.01 12.38L131.01 5.88L132.19 5.88L132.19 12.38L132.19 12.38Q132.19 14.08 131.29 14.98L131.29 14.98L131.29 14.98Q130.40 15.88 128.83 15.88L128.83 15.88L128.83 15.88Q127.26 15.88 126.36 14.98L126.36 14.98L126.36 14.98Q125.47 14.08 125.47 12.38L125.47 12.38L125.47 5.88ZM140.95 6.97L140.95 5.88L147.84 5.88L147.84 6.97L144.98 6.97L144.98 15.68L143.81 15.68L143.81 6.97L140.95 6.97ZM156.86 6.97L156.86 5.88L163.07 5.88L163.07 6.97L160.55 6.97L160.55 14.59L163.07 14.59L163.07 15.68L156.86 15.68L156.86 14.59L159.38 14.59L159.38 6.97L156.86 6.97ZM172.09 11.87L172.09 9.69L172.09 9.69Q172.09 7.78 173.00 6.73L173.00 6.73L173.00 6.73Q173.91 5.68 175.53 5.68L175.53 5.68L175.53 5.68Q177.16 5.68 178.07 6.73L178.07 6.73L178.07 6.73Q178.98 7.78 178.98 9.69L178.98 9.69L178.98 11.87L178.98 11.87Q178.98 13.83 178.07 14.85L178.07 14.85L178.07 14.85Q177.16 15.88 175.53 15.88L175.53 15.88L175.53 15.88Q173.91 15.88 173.00 14.85L173.00 14.85L173.00 14.85Q172.09 13.83 172.09 11.87L172.09 11.87ZM175.53 14.78L175.53 14.78L175.53 14.78Q176.67 14.78 177.23 14.01L177.23 14.01L177.23 14.01Q177.80 13.23 177.80 11.79L177.80 11.79L177.80 9.77L177.80 9.77Q177.80 8.43 177.23 7.60L177.23 7.60L177.23 7.60Q176.67 6.78 175.53 6.78L175.53 6.78L175.53 6.78Q174.40 6.78 173.83 7.60L173.83 7.60L173.83 7.60Q173.26 8.43 173.26 9.77L173.26 9.77L173.26 11.79L173.26 11.79Q173.26 13.23 173.83 14.01L173.83 14.01L173.83 14.01Q174.40 14.78 175.53 14.78ZM190.19 5.88L193.02 15.18L193.19 15.18L193.19 5.88L194.36 5.88L194.36 15.68L192.01 15.68L189.18 6.38L189.01 6.38L189.01 15.68L187.84 15.68L187.84 5.88L190.19 5.88ZM208.98 9.21L208.98 8.71L208.98 8.71Q208.98 8.23 208.79 7.87L208.79 7.87L208.79 7.87Q208.60 7.50 208.28 7.27L208.28 7.27L208.28 7.27Q207.96 7.03 207.54 6.90L207.54 6.90L207.54 6.90Q207.12 6.78 206.65 6.78L206.65 6.78L206.65 6.78Q206.25 6.78 205.88 6.88L205.88 6.88L205.88 6.88Q205.52 6.99 205.23 7.18L205.23 7.18L205.23 7.18Q204.95 7.38 204.78 7.66L204.78 7.66L204.78 7.66Q204.61 7.95 204.61 8.33L204.61 8.33L204.61 8.41L204.61 8.41Q204.61 8.82 204.78 9.11L204.78 9.11L204.78 9.11Q204.95 9.39 205.28 9.60L205.28 9.60L205.28 9.60Q205.60 9.80 206.09 9.93L206.09 9.93L206.09 9.93Q206.58 10.07 207.24 10.16L207.24 10.16L207.24 10.16Q208.78 10.40 209.51 11.07L209.51 11.07L209.51 11.07Q210.24 11.73 210.24 12.85L210.24 12.85L210.24 13.02L210.24 13.02Q210.24 13.65 210.02 14.17L210.02 14.17L210.02 14.17Q209.80 14.70 209.38 15.08L209.38 15.08L209.38 15.08Q208.95 15.46 208.32 15.67L208.32 15.67L208.32 15.67Q207.69 15.88 206.86 15.88L206.86 15.88L206.86 15.88Q205.93 15.88 205.21 15.60L205.21 15.60L205.21 15.60Q204.48 15.33 204.00 14.85L204.00 14.85L204.00 14.85Q203.52 14.36 203.27 13.71L203.27 13.71L203.27 13.71Q203.01 13.06 203.01 12.29L203.01 12.29L203.01 11.87L204.19 11.87L204.19 12.21L204.19 12.21Q204.19 13.50 204.90 14.14L204.90 14.14L204.90 14.14Q205.60 14.78 206.86 14.78L206.86 14.78L206.86 14.78Q207.96 14.78 208.51 14.30L208.51 14.30L208.51 14.30Q209.06 13.82 209.06 13.02L209.06 13.02L209.06 12.94L209.06 12.94Q209.06 12.17 208.50 11.76L208.50 11.76L208.50 11.76Q207.93 11.35 206.65 11.17L206.65 11.17L206.65 11.17Q205.91 11.07 205.32 10.87L205.32 10.87L205.32 10.87Q204.72 10.67 204.30 10.34L204.30 10.34L204.30 10.34Q203.88 10.01 203.66 9.55L203.66 9.55L203.66 9.55Q203.43 9.09 203.43 8.46L203.43 8.46L203.43 8.29L203.43 8.29Q203.43 7.71 203.67 7.24L203.67 7.24L203.67 7.24Q203.91 6.76 204.34 6.41L204.34 6.41L204.34 6.41Q204.76 6.06 205.36 5.87L205.36 5.87L205.36 5.87Q205.95 5.68 206.67 5.68L206.67 5.68L206.67 5.68Q207.49 5.68 208.15 5.92L208.15 5.92L208.15 5.92Q208.80 6.16 209.24 6.56L209.24 6.56L209.24 6.56Q209.69 6.96 209.92 7.50L209.92 7.50L209.92 7.50Q210.15 8.04 210.15 8.62L210.15 8.62L210.15 9.21L208.98 9.21Z"></path></g></svg>